HIERARCHY
ROOT hip
{
	OFFSET 0.000000 0.000000 0.000000 
	CHANNELS 6 Xposition Yposition Zposition Xrotation Zrotation Yrotation
	JOINT abdomen
	{
		OFFSET 0.000000 3.402643 0.000000 
		CHANNELS 3 Xrotation Zrotation Yrotation
		JOINT chest
		{
			OFFSET 0.000000 8.438565 -0.680529 
			CHANNELS 3 Xrotation Zrotation Yrotation
			JOINT neck
			{
				OFFSET 0.000000 10.207942 -0.272212 
				CHANNELS 3 Xrotation Zrotation Yrotation
				JOINT head
				{
					OFFSET 0.000000 3.130431 0.000000 
					CHANNELS 3 Xrotation Zrotation Yrotation
					End Site
					{
						OFFSET 0.000000 3.130435 0.000000 
					}
				}
			}
			JOINT lCollar
			{
				OFFSET 3.470700 6.669187 -0.816635 
				CHANNELS 3 Yrotation Zrotation Xrotation
				JOINT lShldr
				{
					OFFSET 3.198488 0.000000 0.000000 
					CHANNELS 3 Zrotation Yrotation Xrotation
					JOINT lForeArm
					{
						OFFSET 10.139888 0.000000 0.000000 
						CHANNELS 3 Yrotation Zrotation Xrotation
						JOINT lHand
						{
							OFFSET 8.370511 0.000000 0.000000 
							CHANNELS 3 Zrotation Yrotation Xrotation
							End Site
							{
								OFFSET 4.083176 0.000000 0.000000 
							}
						}
					}
				}
			}
			JOINT rCollar
			{
				OFFSET -3.470700 6.669187 -0.816635 
				CHANNELS 3 Yrotation Zrotation Xrotation
				JOINT rShldr
				{
					OFFSET -3.198488 0.000000 0.000000 
					CHANNELS 3 Zrotation Yrotation Xrotation
					JOINT rForeArm
					{
						OFFSET -10.139888 0.000000 0.000000 
						CHANNELS 3 Yrotation Zrotation Xrotation
						JOINT rHand
						{
							OFFSET -8.370511 0.000000 0.000000 
							CHANNELS 3 Zrotation Yrotation Xrotation
							End Site
							{
								OFFSET -4.083176 0.000000 0.000000 
							}
						}
					}
				}
			}
		}
	}
	JOINT lThigh
	{
		OFFSET 5.308129 -1.633274 1.361059 
		CHANNELS 3 Xrotation Zrotation Yrotation
		JOINT lShin
		{
			OFFSET -2.041588 -20.007561 0.000000 
			CHANNELS 3 Xrotation Zrotation Yrotation
			JOINT lFoot
			{
				OFFSET 0.000000 -19.190928 -1.224953 
				CHANNELS 3 Xrotation Yrotation Zrotation
				End Site
				{
					OFFSET 0.000000 -2.449906 4.627600 
				}
			}
		}
	}
	JOINT rThigh
	{
		OFFSET -5.308129 -1.633274 1.361059 
		CHANNELS 3 Xrotation Zrotation Yrotation
		JOINT rShin
		{
			OFFSET 2.041588 -20.007561 0.000000 
			CHANNELS 3 Xrotation Zrotation Yrotation
			JOINT rFoot
			{
				OFFSET 0.000000 -19.190928 -1.224953 
				CHANNELS 3 Xrotation Yrotation Zrotation
				End Site
				{
					OFFSET 0.000000 -2.449906 4.627600 
				}
			}
		}
	}
}
MOTION
Frames: 16
Frame Time: 0.033333
20.028265 52.853069 -136.638474 9.492188 -0.537109 6.923747 28.620173 -14.824608 -4.809789 -11.523437 9.677735 4.835627 51.063168 8.107644 2.471410 -22.480469 -20.859373 15.201602 2.000000 -2.000000 0.000000 -85.449219 32.089844 -4.985045 -69.041779 -1.217371 -2.644423 17.719822 67.333183 20.060696 -2.000000 2.000000 0.000000 71.386719 -27.392580 14.888084 77.247604 0.666189 -2.754943 -91.238594 -66.665352 97.583817 -19.967678 14.615615 13.573460 31.610655 -4.439528 -2.833011 -1.097099 15.121171 2.705495 -11.199848 -1.170239 -40.314835 10.668064 5.124258 0.421058 -2.251282 -7.724741 -5.178818 
19.962536 52.892471 -136.334152 9.648438 -0.537109 7.099518 28.604330 -15.162569 -4.582180 -11.347656 9.667969 4.864922 51.063168 8.107644 2.471410 -22.783205 -21.513672 16.572268 2.000000 -2.000000 0.000000 -85.166016 32.480469 -4.628906 -68.670746 -0.904830 -2.652827 18.229441 68.028008 21.145367 -2.000000 2.000000 0.000000 71.572266 -27.226561 14.946706 77.423660 0.657005 -2.765252 -90.782631 -66.579094 97.238831 -18.364397 13.344071 13.709358 24.399557 -4.838883 -2.281244 -6.289408 15.522345 4.523008 -11.024508 -1.170612 -40.299404 11.016541 5.142488 0.451762 -2.260496 -8.077364 -4.964614 
20.125931 52.908222 -135.996246 9.648438 -0.537109 7.099518 28.401060 -15.482327 -4.345349 -11.162110 9.658203 4.882813 51.063168 8.107644 2.471410 -23.085939 -22.167969 18.144533 2.000000 -2.000000 0.000000 -84.677734 32.783203 -4.345703 -68.144875 -1.064212 -2.702406 17.796612 68.459343 20.743528 -2.000000 2.000000 0.000000 71.464844 -27.177736 15.341799 77.423660 0.657005 -2.765252 -89.895729 -66.635078 96.557281 -17.546419 12.692532 13.010543 17.720797 -5.058831 -1.761085 -7.700348 14.102055 5.001092 -10.858546 -1.493089 -40.657738 11.194300 5.074804 0.948028 -2.436059 -7.879591 -4.742235 
20.497036 52.931862 -135.620178 9.667969 -0.361328 7.294860 28.403111 -15.977088 -4.200850 -11.162110 9.658203 4.882813 51.063168 8.107644 2.471410 -23.583986 -22.851563 19.746096 2.000000 -2.000000 0.000000 -84.599609 33.242188 -4.658204 -67.973976 -1.073523 -2.525673 18.594645 69.121346 22.186234 -2.000000 2.000000 0.000000 71.874992 -26.855469 15.039063 77.599442 0.657005 -2.765252 -89.003510 -66.838806 95.578087 -17.811529 13.133657 12.413198 12.950325 -5.173858 -1.356254 -3.527833 7.769807 1.875760 -10.328614 -1.868701 -40.471706 11.721249 5.065171 1.020090 -2.794574 -7.496522 -4.174488 
20.874273 52.947609 -135.242935 9.824219 -0.361328 7.656188 28.192110 -16.312727 -3.949513 -10.986328 9.638674 4.746094 51.063168 8.107644 2.471410 -24.082033 -23.535154 21.220707 2.000000 -2.000000 0.000000 -84.501953 33.632816 -4.603965 -67.622131 -1.082706 -2.515361 18.412207 69.704491 22.506147 -2.000000 2.000000 0.000000 72.265625 -26.689455 14.990236 77.599442 0.657005 -2.765252 -88.130829 -66.579445 94.964851 -18.540779 13.891950 11.356193 8.891048 -5.185694 -0.978538 3.281345 -0.478576 -2.790183 -9.988318 -2.447590 -39.932690 11.911155 5.116153 0.728142 -3.262104 -7.651807 -3.305919 
21.294329 52.939732 -134.852966 9.824219 -0.361328 7.831970 28.188848 -16.558329 -3.883466 -10.810546 9.628906 4.786789 51.063168 8.107644 2.471410 -24.384769 -24.052732 22.480471 2.000000 -2.000000 0.000000 -84.443359 33.994141 -5.141023 -67.277687 -1.272590 -2.416309 19.331602 69.978714 23.876587 -2.000000 2.000000 0.000000 72.841797 -26.396484 14.980470 77.423386 0.656440 -2.755507 -88.138062 -66.481133 94.649117 -18.932974 14.108657 10.590341 7.304321 -5.230779 -0.847810 6.161470 -5.403670 -5.569872 -9.607156 -3.100459 -40.076061 12.251186 5.068546 1.034800 -3.670562 -7.642192 -2.635626 
21.750257 52.939732 -134.475723 10.019531 -0.175781 8.027314 28.013309 -16.561747 -3.874323 -10.810546 9.628906 4.786789 51.063168 8.107644 2.471410 -24.716799 -24.570313 23.291018 2.000000 -2.000000 0.000000 -84.755859 34.248047 -5.004269 -66.911270 -0.950181 -2.591519 19.635527 70.494431 24.376711 -2.000000 2.000000 0.000000 72.832031 -26.220705 15.136719 77.247604 0.666189 -2.754943 -86.841064 -66.354424 93.718689 -18.657001 13.471308 10.189659 8.034163 -5.253181 -0.929823 5.973587 -4.830776 -5.050384 -9.334967 -3.893890 -40.088795 12.438079 5.047327 1.087197 -4.000556 -7.440542 -1.930756 
22.250734 52.931862 -134.115860 10.019531 -0.175781 8.203094 28.035246 -16.476328 -4.016707 -10.810546 9.628906 4.611009 51.063168 8.107644 2.471410 -24.658203 -25.039061 23.583988 2.000000 -2.000000 0.000000 -85.429688 34.658203 -5.804992 -66.559425 -0.959364 -2.581206 19.655146 70.876617 24.780632 -2.000000 2.000000 0.000000 72.822266 -26.396484 15.366753 77.247604 0.666189 -2.754943 -87.256592 -66.458206 94.131294 -18.646080 12.923535 10.233179 8.891109 -5.185592 -0.978531 4.779720 -4.836387 -4.792746 -8.923849 -4.543887 -39.695404 12.778520 5.068868 1.068785 -3.864776 -6.995663 -0.866441 
22.783382 52.947609 -133.753662 10.019531 -0.175781 8.378877 28.038496 -16.230726 -4.085527 -10.800779 9.794922 4.669631 51.063168 8.107644 2.471410 -24.638674 -25.195311 23.339846 2.000000 -2.000000 0.000000 -85.781250 34.687500 -6.488584 -66.397934 -1.300137 -2.385371 19.412111 70.900505 24.578125 -2.000000 2.000000 0.000000 72.187500 -26.396486 15.849609 77.072083 0.676504 -2.764125 -87.266068 -66.379776 94.187439 -18.493790 12.234256 10.190232 9.250937 -5.165360 -1.017177 4.363039 -4.283828 -4.322546 -8.603154 -5.340335 -39.015480 12.950491 5.094473 0.637890 -4.347491 -7.039112 0.100740 
23.327833 52.947609 -133.390320 10.185547 0.000000 8.583984 28.060793 -16.147568 -4.249672 -10.976563 9.804688 4.628906 51.063168 8.107644 2.471410 -24.492189 -24.863279 22.001955 2.000000 -2.000000 0.000000 -86.435547 34.726563 -7.142873 -66.214989 -1.159000 -2.481587 19.075480 71.137726 24.173120 -2.000000 2.000000 0.000000 71.748047 -26.904299 16.411598 76.896034 0.675938 -2.754379 -88.085808 -66.221329 95.169022 -17.890505 11.845660 10.104831 9.955904 -5.195960 -1.087604 3.323398 -3.702415 -4.143119 -8.241106 -5.988716 -39.380375 13.306956 5.027849 1.127964 -4.121575 -6.193982 1.011971 
23.892765 52.939732 -133.032730 10.185547 0.000000 8.759766 27.902418 -15.834723 -4.467906 -10.976563 9.804688 4.453125 51.063168 8.107644 2.471410 -24.023439 -23.857420 19.785156 2.000000 -2.000000 0.000000 -87.060547 34.599606 -7.578125 -66.207588 -0.968547 -2.570894 19.657206 70.866882 24.770864 -2.000000 2.000000 0.000000 71.328125 -27.236328 16.923828 76.896034 0.675938 -2.754379 -89.019600 -66.375648 95.915100 -17.561192 11.126271 10.051429 10.489067 -5.202098 -1.162238 2.563771 -3.420125 -3.953898 -7.958390 -6.819548 -39.204960 13.669547 5.018542 1.341864 -3.977570 -6.007676 1.384005 
24.456772 52.947609 -132.686752 10.185547 0.000000 8.945313 27.928371 -15.509358 -4.689374 -11.152344 9.824219 4.423828 51.063168 8.107644 2.471410 -23.603518 -22.539061 16.738279 2.000000 -2.000000 0.000000 -87.656250 34.111328 -8.359374 -66.397949 -1.290387 -2.385938 19.098761 70.374817 23.872952 -2.000000 2.000000 0.000000 70.673836 -27.431641 17.456436 76.732857 0.867390 -2.850866 -90.294121 -66.313171 97.172081 -17.387722 10.542715 9.600020 10.669574 -5.213896 -1.138852 2.183060 -2.653015 -3.695959 -7.382737 -7.536419 -38.200172 14.019622 5.057256 0.712898 -3.913848 -6.044534 2.600703 
25.032236 52.939732 -132.341888 10.371094 0.166016 8.994169 27.949097 -15.417150 -4.850215 -11.142578 9.990234 4.308335 51.063168 8.107644 2.471410 -23.242188 -20.781250 13.476563 2.000000 -2.000000 0.000000 -88.134766 33.554688 -8.496095 -66.735489 -0.950181 -2.591519 18.478506 69.891777 22.721912 -2.000000 2.000000 0.000000 70.048828 -27.724611 18.061863 76.544456 0.695437 -2.753252 -91.602272 -66.331467 98.744781 -17.450727 9.628598 9.502120 11.020337 -5.203811 -1.196783 1.758601 -2.057595 -3.132149 -7.080170 -8.248205 -38.363033 14.235549 5.003141 1.387009 -3.933278 -5.640137 3.405249 
25.611513 52.923969 -132.007492 10.371094 0.166016 9.169950 27.789715 -15.095204 -5.065384 -11.142578 9.990234 4.308335 51.063168 8.107644 2.471410 -22.851563 -19.013672 10.006584 2.000000 -2.000000 0.000000 -88.564453 32.841797 -9.101563 -67.101906 -1.262841 -2.416876 17.587879 69.061554 21.073692 -2.000000 2.000000 0.000000 69.619141 -28.037109 18.579397 76.368675 0.695437 -2.753251 -92.061424 -66.358612 99.136307 -17.226398 8.964717 9.600747 11.371078 -5.193750 -1.176749 0.846624 -1.928570 -2.766712 -6.728637 -8.972444 -38.015911 14.586627 4.993215 1.210502 -3.825212 -5.212506 4.085995 
26.192533 52.916103 -131.669571 10.371094 0.166016 9.169950 27.805885 -14.769838 -5.289833 -11.318359 10.000001 4.277344 51.063168 8.107644 2.471410 -22.617188 -17.138670 6.865235 2.000000 -2.000000 0.000000 -88.867188 32.158203 -8.886719 -67.263107 -0.940998 -2.601831 16.603640 68.064636 19.659248 -2.000000 2.000000 0.000000 68.994148 -28.144531 18.960238 76.368668 0.705186 -2.752687 -92.889313 -66.308769 100.307503 -16.776260 8.397878 9.690166 11.546192 -5.137268 -1.186816 0.285179 -1.328916 -2.586830 -6.416592 -9.799029 -37.868610 14.738927 5.001801 1.214626 -3.540807 -4.922446 4.681132 
26.776676 52.892471 -131.357162 10.371094 0.166016 9.169950 27.840755 -14.435369 -5.508556 -11.308594 10.175781 4.160157 51.063168 8.107644 2.471410 -22.373049 -15.253906 3.945313 2.000000 -2.000000 0.000000 -89.101563 31.376953 -9.242961 -67.615234 -0.922631 -2.622457 16.594603 67.487602 19.097998 -2.000000 2.000000 0.000000 68.349609 -28.330080 19.501953 76.192329 0.713805 -2.732632 -93.765617 -66.459068 101.103317 -16.360498 7.749375 9.458704 11.901402 -5.177716 -1.248769 -0.219529 -0.632119 -2.550881 -6.045628 -10.465531 -37.373192 15.112323 4.973249 1.456175 -3.046745 -4.445242 5.640713 
